<svg xmlns="http://www.w3.org/2000/svg" xmlns:xlink="http://www.w3.org/1999/xlink" width="500" zoomAndPan="magnify" viewBox="0 0 375 374.999991" height="500" preserveAspectRatio="xMidYMid meet" version="1.0"><path fill="#2a245e" d="M 229.820312 225.65625 C 236.359375 233.542969 234.972656 245.480469 226.722656 252.324219 C 218.472656 259.164062 206.480469 258.316406 199.941406 250.429688 C 193.402344 242.542969 194.789062 230.605469 203.039062 223.761719 C 211.289062 216.921875 223.28125 217.769531 229.820312 225.65625 Z M 229.820312 225.65625 " fill-opacity="1" fill-rule="nonzero"/><path fill="#02c1c2" d="M 227.960938 220.621094 C 228.398438 221.652344 228.25 222.839844 227.59375 223.75 C 225.695312 226.367188 223.730469 228.808594 221.6875 231.058594 C 215.183594 238.230469 207.914062 243.496094 199.773438 246.585938 C 198.65625 247.011719 197.390625 246.777344 196.503906 245.976562 C 181.402344 232.351562 169.421875 218.472656 162.992188 204.132812 C 157.757812 191.007812 164.582031 177.371094 176.367188 172.925781 C 183.046875 170.398438 191.335938 170.835938 199.925781 176.003906 C 200.21875 176.175781 200.480469 176.398438 200.703125 176.65625 C 212.085938 189.753906 221.09375 204.460938 227.960938 220.621094 Z M 227.960938 220.621094 " fill-opacity="1" fill-rule="nonzero"/><path fill="#35cdce" d="M 227.957031 220.621094 C 228.398438 221.652344 228.246094 222.839844 227.589844 223.75 C 225.695312 226.367188 223.730469 228.808594 221.6875 231.058594 C 208.808594 203.382812 194.386719 181.464844 176.367188 172.925781 C 183.046875 170.398438 191.335938 170.835938 199.925781 176.003906 C 200.21875 176.175781 200.480469 176.398438 200.703125 176.65625 C 212.085938 189.753906 221.089844 204.460938 227.957031 220.621094 Z M 227.957031 220.621094 " fill-opacity="1" fill-rule="nonzero"/><path fill="#02c1c2" d="M 294.546875 219.144531 C 298.503906 226.265625 299.894531 233.71875 298.660156 241.523438 C 298.503906 242.519531 297.984375 243.429688 297.1875 244.050781 C 272.96875 263.003906 245.925781 267.492188 216.414062 259.335938 C 214.34375 258.765625 213.101562 256.632812 213.613281 254.546875 C 215.269531 247.796875 217.246094 241.339844 219.820312 235.453125 C 221.785156 230.960938 224.101562 226.796875 226.886719 223.078125 C 227.144531 222.730469 227.460938 222.429688 227.8125 222.183594 C 246.234375 209.402344 265.589844 205.050781 285.855469 208.925781 C 286.6875 209.089844 287.453125 209.515625 288.023438 210.148438 C 290.671875 213.085938 292.847656 216.082031 294.546875 219.144531 Z M 294.546875 219.144531 " fill-opacity="1" fill-rule="nonzero"/><path fill="#35cdce" d="M 294.546875 219.144531 C 268.273438 221.144531 243.296875 226.398438 219.820312 235.453125 C 221.785156 230.960938 224.101562 226.796875 226.886719 223.078125 C 227.144531 222.730469 227.460938 222.429688 227.8125 222.183594 C 246.234375 209.402344 265.589844 205.050781 285.855469 208.925781 C 286.6875 209.089844 287.453125 209.515625 288.023438 210.144531 C 290.671875 213.085938 292.847656 216.082031 294.546875 219.144531 Z M 294.546875 219.144531 " fill-opacity="1" fill-rule="nonzero"/><path fill="#2a245e" d="M 61.386719 239.191406 C 61.386719 249.570312 53.488281 257.980469 43.746094 257.980469 C 34.003906 257.980469 26.105469 249.570312 26.105469 239.191406 C 26.105469 228.816406 34.003906 220.40625 43.746094 220.40625 C 53.488281 220.40625 61.386719 228.816406 61.386719 239.191406 Z M 61.386719 239.191406 " fill-opacity="1" fill-rule="nonzero"/><path fill="#02c1c2" d="M 58.921875 243.019531 C 49.609375 242.34375 41.328125 240.125 35.003906 234.957031 C 31.308594 231.9375 28.277344 227.910156 26.105469 222.589844 C 32.914062 205.617188 43.453125 191.164062 54.683594 177.171875 C 61.125 171.117188 70.09375 169.464844 77.71875 171.753906 C 87.644531 174.722656 95.304688 184.339844 92.199219 199.570312 C 85.023438 214.15625 74.160156 228.648438 58.921875 243.019531 Z M 58.921875 243.019531 " fill-opacity="1" fill-rule="nonzero"/><path fill="#35cdce" d="M 35.003906 234.957031 C 31.308594 231.9375 28.277344 227.910156 26.105469 222.589844 C 32.914062 205.617188 43.453125 191.164062 54.6875 177.171875 C 61.125 171.117188 70.09375 169.464844 77.71875 171.753906 C 62.769531 184.792969 48.511719 205.679688 35.003906 234.957031 Z M 35.003906 234.957031 " fill-opacity="1" fill-rule="nonzero"/><path fill="#35cdce" d="M 199.976562 176.964844 C 199.417969 253.507812 183.355469 299.605469 132.445312 301.050781 C 132.445312 301.050781 132.441406 301.050781 132.441406 301.050781 C 130.835938 301.097656 129.195312 301.097656 127.515625 301.050781 C 123.210938 300.578125 119.191406 299.828125 115.441406 298.824219 C 69.148438 286.457031 64.039062 235.214844 69.097656 174.371094 C 69.097656 174.371094 79.585938 174.578125 79.585938 174.578125 C 79.585938 174.578125 118.910156 175.359375 118.910156 175.359375 C 118.910156 175.359375 160.859375 176.1875 160.859375 176.1875 C 160.859375 176.1875 160.875 176.1875 160.875 176.1875 C 160.875 176.1875 193.996094 176.84375 193.996094 176.84375 C 193.996094 176.84375 199.976562 176.964844 199.976562 176.964844 Z M 199.976562 176.964844 " fill-opacity="1" fill-rule="nonzero"/><path fill="#02c1c2" d="M 193.996094 176.84375 C 190.859375 246.828125 175.296875 288.976562 132.953125 291.410156 C 132.953125 291.410156 132.949219 291.410156 132.949219 291.410156 C 131.546875 291.496094 130.113281 291.53125 128.652344 291.523438 C 124.902344 291.148438 121.414062 290.484375 118.164062 289.570312 C 79.804688 278.765625 75 231.746094 79.585938 174.578125 C 79.585938 174.578125 118.910156 175.359375 118.910156 175.359375 C 118.910156 175.359375 160.859375 176.1875 160.859375 176.1875 C 160.859375 176.1875 160.875 176.1875 160.875 176.1875 C 160.875 176.1875 193.996094 176.84375 193.996094 176.84375 Z M 193.996094 176.84375 " fill-opacity="1" fill-rule="nonzero"/><path fill="#2a245e" d="M 174.253906 200.835938 C 174.253906 200.835938 186.441406 200.542969 186.441406 200.542969 C 187.980469 200.507812 189.195312 201.859375 188.960938 203.347656 C 188.960938 203.347656 184.851562 229.121094 184.851562 229.121094 C 184.683594 230.15625 183.851562 230.960938 182.789062 231.082031 C 178.703125 231.546875 174.601562 231.230469 170.488281 230.304688 C 169.230469 230.023438 168.378906 228.847656 168.550781 227.605469 C 168.550781 227.605469 171.945312 202.859375 171.945312 202.859375 C 172.101562 201.71875 173.074219 200.863281 174.253906 200.835938 Z M 174.253906 200.835938 " fill-opacity="1" fill-rule="nonzero"/><path fill="#f0c808" d="M 174.179688 205.085938 C 174.179688 205.085938 173.914062 208.410156 173.914062 208.410156 C 173.871094 208.945312 174.308594 209.414062 174.859375 209.414062 C 174.859375 209.414062 184.398438 209.40625 184.398438 209.40625 C 184.847656 209.40625 185.226562 209.085938 185.296875 208.652344 C 185.296875 208.652344 185.890625 204.9375 185.890625 204.9375 C 185.980469 204.363281 185.507812 203.84375 184.914062 203.867188 C 184.914062 203.867188 175.050781 204.265625 175.050781 204.265625 C 174.589844 204.285156 174.21875 204.636719 174.179688 205.085938 Z M 174.179688 205.085938 " fill-opacity="1" fill-rule="nonzero"/><path fill="#f0c808" d="M 173.382812 213.230469 C 173.382812 213.230469 172.871094 216.457031 172.871094 216.457031 C 172.789062 216.964844 173.160156 217.449219 173.6875 217.519531 C 173.6875 217.519531 182.839844 218.703125 182.839844 218.703125 C 183.316406 218.761719 183.753906 218.460938 183.855469 218.007812 C 183.855469 218.007812 184.886719 213.304688 184.886719 213.304688 C 185.015625 212.722656 184.542969 212.164062 183.929688 212.183594 C 183.929688 212.183594 174.257812 212.476562 174.257812 212.476562 C 173.816406 212.488281 173.453125 212.804688 173.382812 213.230469 Z M 173.382812 213.230469 " fill-opacity="1" fill-rule="nonzero"/><path fill="#f0c808" d="M 171.96875 222.105469 C 171.96875 222.105469 171.371094 225.84375 171.371094 225.84375 C 171.289062 226.359375 171.671875 226.847656 172.207031 226.90625 C 172.207031 226.90625 181.734375 227.957031 181.734375 227.957031 C 182.226562 228.011719 182.664062 227.683594 182.742188 227.210938 C 182.742188 227.210938 183.386719 223.15625 183.386719 223.15625 C 183.472656 222.625 183.070312 222.128906 182.523438 222.085938 C 182.523438 222.085938 172.941406 221.355469 172.941406 221.355469 C 172.464844 221.320312 172.042969 221.644531 171.96875 222.105469 Z M 171.96875 222.105469 " fill-opacity="1" fill-rule="nonzero"/><path fill="#2a245e" d="M 71.226562 178.507812 C 89.664062 190.992188 180.515625 192.484375 198.140625 180.675781 C 200.898438 178.828125 200.488281 174.679688 197.441406 173.199219 C 177.5 163.519531 92.253906 159.640625 71.613281 170.386719 C 68.4375 172.039062 68.214844 176.464844 71.226562 178.507812 Z M 71.226562 178.507812 " fill-opacity="1" fill-rule="nonzero"/><path fill="#02c1c2" d="M 110.785156 235.351562 C 110.445312 237.855469 109.015625 240.066406 106.933594 241.492188 C 89.199219 253.601562 69.1875 260.242188 47.6875 263.304688 C 43.464844 263.910156 39.367188 261.464844 37.96875 257.433594 C 36.179688 252.269531 35.121094 246.773438 35.234375 240.742188 C 35.300781 237.238281 35.761719 233.550781 36.707031 229.652344 C 37.175781 227.714844 38.292969 225.996094 39.851562 224.765625 C 57.5625 210.816406 76.835938 201.117188 98.386719 198.59375 C 102.644531 198.097656 106.65625 200.699219 107.957031 204.789062 C 108.390625 206.148438 108.78125 207.484375 109.125 208.8125 C 111.609375 218.347656 111.914062 227.109375 110.785156 235.351562 Z M 110.785156 235.351562 " fill-opacity="1" fill-rule="nonzero"/><path fill="#35cdce" d="M 109.125 208.8125 C 79.667969 214.332031 55.027344 224.960938 35.234375 240.742188 C 35.300781 237.238281 35.761719 233.550781 36.707031 229.652344 C 37.175781 227.714844 38.292969 225.996094 39.855469 224.765625 C 57.5625 210.816406 76.835938 201.117188 98.386719 198.59375 C 102.644531 198.097656 106.65625 200.699219 107.957031 204.789062 C 108.390625 206.148438 108.78125 207.484375 109.125 208.8125 Z M 109.125 208.8125 " fill-opacity="1" fill-rule="nonzero"/><path fill="#02c1c2" d="M 145.898438 324.164062 C 145.570312 324.511719 145.152344 324.769531 144.6875 324.90625 C 139.554688 326.398438 134.546875 327.21875 129.652344 327.375 C 118.59375 327.726562 108.148438 324.675781 98.289062 318.324219 C 97.8125 318.019531 97.445312 317.566406 97.238281 317.042969 C 96.125 314.179688 96.082031 311.515625 97.046875 309.035156 C 97.585938 307.644531 99.1875 306.980469 100.585938 307.546875 C 111.398438 311.921875 122.496094 314.183594 133.914062 314.085938 C 137.960938 314.054688 142.050781 313.722656 146.183594 313.085938 C 147.898438 312.824219 149.4375 314.226562 149.304688 315.933594 C 149.058594 319.179688 147.988281 321.960938 145.898438 324.164062 Z M 145.898438 324.164062 " fill-opacity="1" fill-rule="nonzero"/><path fill="#35cdce" d="M 145.902344 324.164062 C 145.574219 324.511719 145.152344 324.773438 144.6875 324.90625 C 139.554688 326.398438 134.546875 327.21875 129.652344 327.375 C 134.9375 324.449219 136.832031 320.207031 133.914062 314.085938 C 137.960938 314.054688 142.050781 313.722656 146.183594 313.085938 C 147.898438 312.824219 149.4375 314.226562 149.304688 315.933594 C 149.058594 319.179688 147.988281 321.960938 145.902344 324.164062 Z M 145.902344 324.164062 " fill-opacity="1" fill-rule="nonzero"/><path fill="#02c1c2" d="M 138.117188 343.695312 C 137.90625 344.226562 137.644531 344.75 137.324219 345.261719 C 136.433594 346.710938 134.90625 347.6875 133.203125 347.933594 C 130.828125 348.285156 128.4375 348.511719 126.027344 348.621094 C 119.449219 348.917969 112.75 348.324219 105.921875 346.882812 C 103.558594 346.378906 101.558594 344.804688 100.570312 342.625 C 100.054688 341.503906 99.773438 340.460938 99.75 339.519531 C 99.6875 337.332031 101.71875 335.667969 103.890625 336.085938 C 112.582031 337.753906 120.96875 338.847656 128.929688 339.09375 C 130.933594 339.160156 132.90625 339.167969 134.847656 339.117188 C 137.277344 339.050781 138.984375 341.457031 138.117188 343.695312 Z M 138.117188 343.695312 " fill-opacity="1" fill-rule="nonzero"/><path fill="#35cdce" d="M 138.117188 343.695312 C 137.90625 344.226562 137.644531 344.75 137.324219 345.261719 C 136.433594 346.710938 134.90625 347.6875 133.203125 347.933594 C 130.828125 348.285156 128.4375 348.511719 126.027344 348.621094 C 128.378906 346.128906 129.515625 343.042969 128.929688 339.09375 C 130.933594 339.160156 132.90625 339.167969 134.851562 339.117188 C 137.277344 339.050781 138.984375 341.457031 138.117188 343.695312 Z M 138.117188 343.695312 " fill-opacity="1" fill-rule="nonzero"/><path fill="#2a245e" d="M 123.023438 39.65625 C 124.542969 50.519531 123.285156 58.800781 120.6875 65.84375 C 120.6875 65.84375 133.769531 63.511719 133.769531 63.511719 C 128.0625 57.398438 126.1875 49.203125 127.285156 39.402344 C 127.285156 39.402344 123.023438 39.65625 123.023438 39.65625 Z M 123.023438 39.65625 " fill-opacity="1" fill-rule="nonzero"/><path fill="#02c1c2" d="M 142.007812 70.066406 C 142.007812 70.066406 134.914062 71.082031 134.914062 71.082031 C 134.914062 71.082031 112.191406 74.347656 112.191406 74.347656 C 113.101562 69.132812 116.636719 64.953125 126.898438 63.402344 C 128.519531 63.207031 130.050781 63.054688 131.472656 62.980469 C 137.964844 62.625 142.179688 63.84375 142.007812 70.066406 Z M 142.007812 70.066406 " fill-opacity="1" fill-rule="nonzero"/><path fill="#35cdce" d="M 142.007812 70.066406 C 142.007812 70.066406 134.914062 71.082031 134.914062 71.082031 C 136.007812 68.472656 134.554688 65.753906 131.476562 62.980469 C 137.964844 62.625 142.179688 63.84375 142.007812 70.066406 Z M 142.007812 70.066406 " fill-opacity="1" fill-rule="nonzero"/><path fill="#f0c808" d="M 133.566406 33.222656 C 133.851562 38.039062 130.175781 42.175781 125.359375 42.460938 C 120.542969 42.75 116.40625 39.074219 116.117188 34.257812 C 115.832031 29.4375 119.507812 25.300781 124.324219 25.015625 C 129.144531 24.730469 133.28125 28.40625 133.566406 33.222656 Z M 133.566406 33.222656 " fill-opacity="1" fill-rule="nonzero"/><path fill="#f3d339" d="M 133.566406 33.222656 C 133.851562 38.039062 130.175781 42.179688 125.359375 42.464844 C 124.65625 42.503906 123.964844 42.464844 123.300781 42.34375 C 127.078125 41.195312 129.722656 37.578125 129.476562 33.464844 C 129.234375 29.351562 126.183594 26.070312 122.292969 25.378906 C 122.9375 25.179688 123.621094 25.058594 124.324219 25.015625 C 129.140625 24.730469 133.277344 28.40625 133.566406 33.222656 Z M 133.566406 33.222656 " fill-opacity="1" fill-rule="nonzero"/><path fill="#02c1c2" d="M 195.785156 130.707031 C 195.9375 132.0625 195.535156 133.429688 194.65625 134.472656 C 186.992188 143.59375 176.929688 151.152344 165.464844 156.734375 C 139.886719 169.203125 107.320312 171.84375 78.777344 160.054688 C 75.847656 158.84375 74.007812 155.921875 74.164062 152.761719 C 75.605469 123.394531 71.769531 92.148438 109.148438 75.605469 C 117.414062 71.949219 126.285156 69.992188 135.246094 69.839844 C 138.820312 69.777344 142.414062 70 145.984375 70.519531 C 173.722656 74.546875 191.503906 92.902344 195.785156 130.707031 Z M 195.785156 130.707031 " fill-opacity="1" fill-rule="nonzero"/><path fill="#35cdce" d="M 194.589844 134.550781 C 186.933594 143.636719 176.898438 151.167969 165.464844 156.734375 C 174.417969 131.125 163.769531 87.855469 135.246094 69.839844 C 138.820312 69.777344 142.414062 70 145.984375 70.519531 C 173.695312 74.542969 191.472656 92.867188 195.773438 130.605469 C 195.933594 132.027344 195.511719 133.460938 194.589844 134.550781 Z M 194.589844 134.550781 " fill-opacity="1" fill-rule="nonzero"/><path fill="#2a245e" d="M 139.320312 87.621094 C 107 91.417969 97.863281 110.335938 96.257812 134.160156 C 95.9375 154.351562 117.324219 158.261719 137.6875 148.171875 C 143.402344 145.34375 149.808594 143.960938 156.214844 144.46875 C 175.535156 146.003906 190.289062 138.78125 184.777344 119.371094 C 180.308594 94.269531 162.640625 87.101562 139.320312 87.621094 Z M 139.320312 87.621094 " fill-opacity="1" fill-rule="nonzero"/><path fill="#2a245e" d="M 324.875 198.378906 C 327.789062 195.785156 330.601562 191.957031 333.277344 186.804688 C 334.1875 185.046875 335.800781 183.6875 337.742188 183.296875 C 344.441406 181.957031 348.929688 192.4375 346.007812 202.421875 C 340.652344 219.851562 330.578125 227.914062 317.1875 229.375 C 305.609375 229.003906 297.417969 224.636719 297.421875 210.59375 C 297.679688 204.886719 300.5625 199.488281 305.679688 194.347656 C 312.554688 186.136719 320.195312 189.417969 320.503906 196.484375 C 320.601562 198.714844 323.207031 199.863281 324.875 198.378906 Z M 324.875 198.378906 " fill-opacity="1" fill-rule="nonzero"/><path fill="#f0c808" d="M 134.9375 160.769531 C 134.9375 160.769531 120.039062 223.628906 120.039062 223.628906 C 119.367188 226.476562 121.347656 229.265625 124.261719 229.566406 C 124.261719 229.566406 151.214844 232.351562 151.214844 232.351562 C 153.597656 232.597656 155.800781 231.066406 156.402344 228.75 C 156.402344 228.75 172.1875 168.144531 172.1875 168.144531 C 172.898438 165.414062 171.132812 162.65625 168.359375 162.152344 C 168.359375 162.152344 140.519531 157.117188 140.519531 157.117188 C 137.984375 156.65625 135.535156 158.261719 134.9375 160.769531 Z M 134.9375 160.769531 " fill-opacity="1" fill-rule="nonzero"/><path fill="#2a245e" d="M 140.765625 177.832031 C 140.765625 177.832031 137.359375 177 137.359375 177 C 136.242188 176.730469 135.554688 175.601562 135.828125 174.484375 C 135.828125 174.484375 138.648438 162.9375 138.648438 162.9375 C 138.917969 161.820312 140.046875 161.136719 141.164062 161.40625 C 141.164062 161.40625 144.570312 162.238281 144.570312 162.238281 C 145.6875 162.511719 146.371094 163.640625 146.097656 164.757812 C 146.097656 164.757812 143.28125 176.304688 143.28125 176.304688 C 143.007812 177.421875 141.882812 178.105469 140.765625 177.832031 Z M 140.765625 177.832031 " fill-opacity="1" fill-rule="nonzero"/><path fill="#2a245e" d="M 117.066406 189.546875 C 111.273438 196.785156 109.90625 205.347656 111.476562 214.792969 C 112.21875 219.242188 115.898438 222.640625 120.386719 223.058594 C 126.980469 223.679688 133.226562 223.5625 138.742188 221.902344 C 139.671875 221.625 140.5625 221.203125 141.371094 220.660156 C 148.515625 215.882812 152.003906 209 150.214844 199.074219 C 149.949219 197.601562 149.992188 196.089844 150.375 194.644531 C 151.320312 191.066406 150.496094 188.410156 148.445312 186.386719 C 146.742188 184.707031 144.429688 183.816406 142.046875 183.675781 C 135.40625 183.296875 128.78125 184.324219 122.160156 186.160156 C 120.148438 186.71875 118.371094 187.914062 117.066406 189.546875 Z M 117.066406 189.546875 " fill-opacity="1" fill-rule="nonzero"/><path fill="#02c1c2" d="M 296.957031 52.441406 C 291.8125 47.292969 284.703125 44.113281 276.851562 44.113281 C 261.144531 44.113281 248.414062 56.84375 248.414062 72.550781 C 248.414062 72.550781 248.414062 78.265625 248.414062 78.265625 C 248.414062 93.972656 261.144531 106.703125 276.851562 106.703125 C 292.554688 106.703125 305.285156 93.972656 305.285156 78.265625 C 305.285156 78.265625 305.285156 72.550781 305.285156 72.550781 C 305.285156 64.695312 302.105469 57.585938 296.957031 52.441406 Z M 298.171875 77.550781 C 298.171875 89.324219 288.625 98.871094 276.851562 98.871094 C 265.074219 98.871094 255.53125 89.324219 255.53125 77.550781 C 255.53125 77.550781 255.53125 73.261719 255.53125 73.261719 C 255.53125 61.492188 265.074219 51.945312 276.851562 51.945312 C 282.738281 51.945312 288.070312 54.328125 291.925781 58.191406 C 295.789062 62.046875 298.171875 67.378906 298.171875 73.261719 C 298.171875 73.261719 298.171875 77.550781 298.171875 77.550781 Z M 298.171875 77.550781 " fill-opacity="1" fill-rule="nonzero"/><path fill="#f0c808" d="M 305.441406 128.839844 C 305.441406 128.839844 248.257812 128.839844 248.257812 128.839844 C 245.410156 128.839844 243.097656 126.527344 243.097656 123.679688 C 243.097656 123.679688 243.097656 84.300781 243.097656 84.300781 C 243.097656 81.453125 245.410156 79.140625 248.257812 79.140625 C 248.257812 79.140625 305.441406 79.140625 305.441406 79.140625 C 308.292969 79.140625 310.601562 81.453125 310.601562 84.300781 C 310.601562 84.300781 310.601562 123.679688 310.601562 123.679688 C 310.601562 126.527344 308.292969 128.839844 305.441406 128.839844 Z M 305.441406 128.839844 " fill-opacity="1" fill-rule="nonzero"/><path fill="#2a245e" d="M 284.628906 100.335938 C 284.628906 104.941406 280.894531 108.675781 276.289062 108.675781 C 271.683594 108.675781 267.949219 104.941406 267.949219 100.335938 C 267.949219 95.730469 271.683594 91.996094 276.289062 91.996094 C 280.894531 91.996094 284.628906 95.730469 284.628906 100.335938 Z M 284.628906 100.335938 " fill-opacity="1" fill-rule="nonzero"/><path fill="#2a245e" d="M 280.375 119.371094 C 280.375 119.371094 272.203125 119.371094 272.203125 119.371094 C 272.203125 119.371094 272.203125 100.335938 272.203125 100.335938 C 272.203125 100.335938 280.375 100.335938 280.375 100.335938 C 280.375 100.335938 280.375 119.371094 280.375 119.371094 Z M 280.375 119.371094 " fill-opacity="1" fill-rule="nonzero"/><path fill="#35cdce" d="M 339.292969 161.074219 C 339.292969 161.074219 214.40625 161.074219 214.40625 161.074219 C 209.308594 161.074219 205.171875 156.941406 205.171875 151.84375 C 205.171875 146.742188 209.308594 142.609375 214.40625 142.609375 C 214.40625 142.609375 339.292969 142.609375 339.292969 142.609375 C 344.394531 142.609375 348.527344 146.742188 348.527344 151.84375 C 348.527344 156.941406 344.394531 161.074219 339.292969 161.074219 Z M 339.292969 161.074219 " fill-opacity="1" fill-rule="nonzero"/><path fill="#f0c808" d="M 125.949219 125.503906 C 126.152344 129.667969 124.429688 133.136719 122.097656 133.25 C 119.769531 133.367188 117.714844 130.082031 117.511719 125.914062 C 117.308594 121.75 119.03125 118.28125 121.359375 118.167969 C 123.691406 118.054688 125.742188 121.339844 125.949219 125.503906 Z M 125.949219 125.503906 " fill-opacity="1" fill-rule="nonzero"/><path fill="#f0c808" d="M 161.417969 118.414062 C 162.375 122.472656 164.992188 125.328125 167.261719 124.792969 C 169.53125 124.257812 170.59375 120.53125 169.636719 116.472656 C 168.675781 112.414062 166.058594 109.558594 163.789062 110.097656 C 161.519531 110.632812 160.457031 114.355469 161.417969 118.414062 Z M 161.417969 118.414062 " fill-opacity="1" fill-rule="nonzero"/><path stroke-linecap="round" transform="matrix(0.347222, 0, 0, 0.347222, 146.545483, 135.05277)" fill="none" stroke-linejoin="round" d="M -28.255993 -3.673227 C -8.197241 12.853025 10.66901 10.243025 28.252762 -12.853227 " stroke="#f0c808" stroke-width="7" stroke-opacity="1" stroke-miterlimit="4"/></svg>